<?xml version="1.0" encoding="UTF-8"?><svg id="Layer_1" xmlns="http://www.w3.org/2000/svg" viewBox="0 0 510.76 511.76"><defs><style>.cls-1{fill:#4a89dc;}</style></defs><path class="cls-1" d="M121.45,449.23c11.61-11.61,11.61-30.43,0-42.04-11.61-11.61-30.43-11.61-42.04,0,0,0-41.99,35.91-71.27,42.04-29.28,6.13,27.95,77.13,54.13,59.82,26.18-17.3,59.18-59.82,59.18-59.82Z"/><circle class="cls-1" cx="165.72" cy="369.29" r="41.44"/><circle class="cls-1" cx="99.23" cy="177.39" r="41.44"/><circle class="cls-1" cx="106.52" cy="282.8" r="41.44"/><circle class="cls-1" cx="153.48" cy="82.88" r="41.44"/><circle class="cls-1" cx="251.13" cy="41.44" r="41.44"/><circle class="cls-1" cx="352.45" cy="47.29" r="41.44"/><circle class="cls-1" cx="435.32" cy="108.86" r="41.44"/><circle class="cls-1" cx="469.32" cy="206.61" r="41.44"/><circle class="cls-1" cx="448.17" cy="308.55" r="41.44"/><circle class="cls-1" cx="367.4" cy="369.29" r="41.44"/><circle class="cls-1" cx="270.03" cy="400.38" r="41.44"/></svg>