<svg width="960" height="540" viewBox="0 0 960 540" fill="none" xmlns="http://www.w3.org/2000/svg">
<path d="M516.37 160.499H516.146V160.52C516.222 160.513 516.285 160.508 516.37 160.499Z" fill="#168F8C"/>
<path d="M517.828 158.408V292.079H549.234V191.9C549.234 184.417 545.245 161.815 517.828 158.408Z" fill="white"/>
<path d="M350.89 268.817C354.884 268.817 358.149 268.31 360.685 267.296C363.219 266.282 365.201 264.969 366.634 263.359C368.065 261.748 369.048 259.928 369.586 257.901C370.122 255.874 370.39 253.815 370.39 251.728C370.39 249.343 370.076 247.195 369.45 245.284C368.826 243.377 367.751 241.766 366.23 240.452C364.711 239.141 362.697 238.126 360.192 237.41C357.688 236.695 354.527 236.336 350.71 236.336H329.603V268.817H350.89ZM329.603 183.902V216.115H345.345C348.682 216.115 351.696 215.877 354.38 215.399C357.061 214.921 359.343 214.087 361.221 212.893C363.098 211.7 364.532 210.061 365.515 207.972C366.497 205.885 366.991 203.26 366.991 200.098C366.991 196.997 366.602 194.416 365.828 192.358C365.051 190.3 363.859 188.645 362.249 187.392C360.64 186.14 358.596 185.245 356.124 184.708C353.649 184.17 350.71 183.902 347.314 183.902H329.603ZM347.314 161.264C356.317 161.264 363.98 162.1 370.301 163.77C376.62 165.441 381.779 167.796 385.775 170.839C389.769 173.881 392.675 177.58 394.496 181.934C396.312 186.288 397.223 191.15 397.223 196.519C397.223 199.442 396.806 202.261 395.973 204.975C395.137 207.69 393.824 210.225 392.035 212.58C390.245 214.937 387.95 217.098 385.148 219.068C382.344 221.036 378.977 222.736 375.042 224.167C383.627 226.255 389.978 229.625 394.092 234.278C398.206 238.931 400.266 244.957 400.266 252.353C400.266 257.901 399.192 263.062 397.044 267.833C394.898 272.606 391.751 276.766 387.607 280.315C383.464 283.865 378.35 286.638 372.267 288.637C366.187 290.636 359.239 291.634 351.428 291.634H299.371V161.264H347.314Z" fill="white"/>
<path d="M491.14 187.75C490.245 189.182 489.308 190.255 488.322 190.97C487.339 191.687 486.072 192.044 484.521 192.044C483.15 192.044 481.674 191.612 480.094 190.747C478.513 189.883 476.724 188.912 474.728 187.839C472.73 186.765 470.448 185.796 467.885 184.931C465.322 184.066 462.399 183.634 459.118 183.634C453.453 183.634 449.234 184.841 446.462 187.258C443.689 189.673 442.302 192.94 442.302 197.055C442.302 199.681 443.138 201.858 444.807 203.587C446.475 205.318 448.669 206.809 451.382 208.062C454.096 209.314 457.198 210.464 460.685 211.506C464.172 212.551 467.735 213.714 471.372 214.996C475.01 216.28 478.575 217.786 482.062 219.513C485.55 221.245 488.652 223.451 491.365 226.137C494.078 228.819 496.269 232.086 497.938 235.934C499.607 239.781 500.442 244.419 500.442 249.847C500.442 255.873 499.401 261.511 497.314 266.758C495.224 272.009 492.198 276.588 488.234 280.494C484.267 284.402 479.378 287.472 473.566 289.71C467.751 291.947 461.145 293.065 453.753 293.065C449.698 293.065 445.567 292.648 441.365 291.813C437.159 290.979 433.091 289.799 429.156 288.278C425.218 286.757 421.522 284.954 418.064 282.866C414.603 280.778 411.593 278.45 409.029 275.885L417.973 261.748C418.691 260.734 419.628 259.885 420.791 259.198C421.953 258.512 423.22 258.17 424.594 258.17C426.381 258.17 428.183 258.736 430.005 259.87C431.824 261.003 433.881 262.255 436.176 263.628C438.472 264.999 441.11 266.253 444.091 267.385C447.073 268.519 450.592 269.086 454.647 269.086C460.133 269.086 464.397 267.877 467.437 265.462C470.478 263.045 471.999 259.213 471.999 253.963C471.999 250.921 471.163 248.446 469.494 246.537C467.826 244.628 465.632 243.048 462.921 241.794C460.205 240.541 457.12 239.438 453.662 238.483C450.204 237.531 446.655 236.471 443.02 235.307C439.38 234.143 435.833 232.713 432.375 231.013C428.915 229.313 425.829 227.076 423.119 224.302C420.402 221.528 418.211 218.069 416.542 213.922C414.874 209.777 414.038 204.661 414.038 198.576C414.038 193.686 415.021 188.912 416.99 184.26C418.958 179.607 421.848 175.461 425.666 171.823C429.483 168.185 434.165 165.277 439.709 163.098C445.254 160.921 451.605 159.832 458.762 159.832C462.755 159.832 466.647 160.145 470.435 160.772C474.22 161.398 477.814 162.324 481.213 163.546C484.612 164.769 487.786 166.23 490.738 167.931C493.69 169.631 496.328 171.554 498.653 173.701L491.14 187.75Z" fill="white"/>
<path d="M552.677 110.23C552.608 109.138 552.483 108.062 552.319 107C559.346 114.256 569.381 118.51 580.25 117.823C585.448 117.494 590.309 116.06 594.636 113.779C591.276 119.646 589.533 126.527 589.991 133.78C590.559 142.759 594.4 150.744 600.268 156.67C597.266 156.065 594.139 155.833 590.938 156.036C578.222 156.841 567.49 164.207 561.807 174.626C559.562 159.225 547.622 147.252 532.69 144.617C545.306 138.449 553.618 125.119 552.677 110.23Z" fill="#F9AD3C"/>
<path d="M312.865 368.781C314.306 368.781 315.548 368.616 316.589 368.287C317.631 367.957 318.482 367.497 319.142 366.906C319.819 366.299 320.313 365.587 320.626 364.771C320.938 363.938 321.095 363.026 321.095 362.036C321.095 360.109 320.409 358.59 319.037 357.479C317.666 356.351 315.608 355.786 312.865 355.786H304.792V368.781H312.865ZM304.792 339.458V352.192H311.459C312.883 352.192 314.115 352.036 315.157 351.724C316.216 351.411 317.084 350.977 317.761 350.422C318.456 349.866 318.968 349.198 319.298 348.416C319.628 347.618 319.793 346.75 319.793 345.812C319.793 343.607 319.133 342.001 317.813 340.994C316.494 339.97 314.445 339.458 311.667 339.458H304.792ZM311.667 335.473C313.959 335.473 315.93 335.699 317.579 336.15C319.246 336.602 320.609 337.244 321.668 338.078C322.744 338.911 323.534 339.935 324.038 341.151C324.541 342.348 324.793 343.703 324.793 345.213C324.793 346.133 324.645 347.019 324.35 347.869C324.072 348.703 323.647 349.484 323.074 350.213C322.501 350.942 321.772 351.602 320.886 352.192C320.018 352.765 318.994 353.234 317.813 353.599C320.557 354.12 322.614 355.101 323.985 356.542C325.374 357.965 326.069 359.84 326.069 362.167C326.069 363.747 325.774 365.188 325.183 366.49C324.61 367.792 323.76 368.912 322.631 369.849C321.52 370.787 320.149 371.516 318.517 372.037C316.885 372.54 315.027 372.792 312.943 372.792H299.766V335.473H311.667Z" fill="white"/>
<path d="M352.748 358.937L346.888 343.755C346.715 343.303 346.532 342.783 346.341 342.192C346.15 341.585 345.968 340.942 345.794 340.265C345.43 341.671 345.057 342.843 344.675 343.781L338.815 358.937H352.748ZM363.269 372.792H359.363C358.911 372.792 358.547 372.679 358.269 372.453C357.991 372.228 357.783 371.941 357.644 371.594L354.154 362.583H337.409L333.919 371.594C333.815 371.906 333.615 372.184 333.32 372.427C333.025 372.67 332.66 372.792 332.226 372.792H328.32L343.242 335.473H348.347L363.269 372.792Z" fill="white"/>
<path d="M398.414 335.473V372.792H395.888C395.488 372.792 395.15 372.722 394.872 372.584C394.612 372.445 394.351 372.21 394.091 371.88L372.501 343.755C372.536 344.189 372.562 344.614 372.58 345.031C372.597 345.448 372.606 345.838 372.606 346.203V372.792H368.178V335.473H370.783C371.008 335.473 371.199 335.491 371.356 335.525C371.512 335.543 371.651 335.586 371.772 335.656C371.894 335.708 372.015 335.795 372.137 335.916C372.258 336.02 372.389 336.159 372.528 336.333L394.117 364.432C394.082 363.981 394.047 363.547 394.013 363.13C393.995 362.696 393.987 362.288 393.987 361.906V335.473H398.414Z" fill="white"/>
<path d="M412.981 351.828H414.882C415.541 351.828 416.071 351.75 416.47 351.594C416.87 351.42 417.234 351.133 417.564 350.734L429.986 336.671C430.334 336.22 430.698 335.907 431.08 335.734C431.462 335.56 431.931 335.473 432.486 335.473H436.757L422.538 351.541C422.191 351.958 421.852 352.305 421.523 352.583C421.21 352.844 420.871 353.061 420.507 353.234C420.976 353.39 421.401 353.625 421.783 353.937C422.165 354.232 422.538 354.623 422.903 355.109L437.747 372.792H433.372C433.042 372.792 432.756 372.775 432.512 372.74C432.287 372.688 432.087 372.618 431.913 372.532C431.74 372.427 431.584 372.314 431.445 372.193C431.323 372.054 431.202 371.898 431.08 371.724L418.215 356.906C417.868 356.472 417.495 356.168 417.095 355.995C416.696 355.804 416.088 355.708 415.272 355.708H412.981V372.792H407.954V335.473H412.981V351.828Z" fill="white"/>
<path d="M474.856 341.307C474.7 341.567 474.526 341.767 474.335 341.906C474.162 342.027 473.945 342.088 473.684 342.088C473.389 342.088 473.042 341.94 472.642 341.645C472.243 341.35 471.74 341.029 471.132 340.682C470.542 340.317 469.821 339.987 468.97 339.692C468.137 339.397 467.121 339.249 465.923 339.249C464.795 339.249 463.797 339.406 462.929 339.718C462.078 340.013 461.357 340.421 460.767 340.942C460.194 341.463 459.76 342.079 459.465 342.791C459.17 343.486 459.022 344.241 459.022 345.057C459.022 346.099 459.274 346.967 459.777 347.661C460.298 348.338 460.975 348.92 461.809 349.406C462.659 349.892 463.614 350.317 464.673 350.682C465.75 351.029 466.844 351.394 467.955 351.776C469.083 352.158 470.177 352.592 471.236 353.078C472.313 353.547 473.267 354.146 474.101 354.875C474.952 355.604 475.629 356.498 476.132 357.557C476.653 358.616 476.913 359.918 476.913 361.464C476.913 363.096 476.636 364.632 476.08 366.073C475.524 367.497 474.708 368.738 473.632 369.797C472.573 370.856 471.262 371.689 469.7 372.297C468.154 372.905 466.392 373.209 464.413 373.209C461.982 373.209 459.777 372.775 457.798 371.906C455.819 371.021 454.126 369.832 452.72 368.339L454.178 365.943C454.317 365.752 454.482 365.596 454.673 365.474C454.881 365.335 455.107 365.266 455.35 365.266C455.576 365.266 455.828 365.361 456.105 365.552C456.401 365.726 456.73 365.951 457.095 366.229C457.46 366.507 457.876 366.811 458.345 367.141C458.814 367.471 459.343 367.774 459.934 368.052C460.541 368.33 461.227 368.564 461.991 368.755C462.755 368.929 463.614 369.016 464.569 369.016C465.767 369.016 466.835 368.851 467.772 368.521C468.71 368.191 469.5 367.731 470.142 367.141C470.802 366.533 471.306 365.813 471.653 364.979C472 364.146 472.174 363.217 472.174 362.193C472.174 361.064 471.913 360.144 471.392 359.432C470.889 358.703 470.22 358.095 469.387 357.609C468.554 357.123 467.599 356.715 466.522 356.385C465.446 356.038 464.352 355.691 463.241 355.344C462.13 354.979 461.036 354.562 459.96 354.094C458.883 353.625 457.928 353.017 457.095 352.271C456.262 351.524 455.585 350.595 455.064 349.484C454.56 348.356 454.308 346.967 454.308 345.317C454.308 343.998 454.56 342.722 455.064 341.489C455.585 340.256 456.331 339.163 457.303 338.208C458.293 337.253 459.5 336.489 460.923 335.916C462.364 335.343 464.014 335.057 465.871 335.057C467.955 335.057 469.847 335.387 471.549 336.046C473.267 336.706 474.778 337.661 476.08 338.911L474.856 341.307Z" fill="white"/>
<path d="M497.295 357.922V372.792H492.243V357.922L478.571 335.473H482.998C483.449 335.473 483.805 335.586 484.066 335.812C484.326 336.02 484.552 336.298 484.743 336.645L493.285 351.151C493.597 351.758 493.884 352.331 494.144 352.87C494.405 353.39 494.63 353.92 494.821 354.458C495.012 353.92 495.229 353.39 495.472 352.87C495.715 352.331 495.985 351.758 496.28 351.151L504.796 336.645C504.952 336.35 505.169 336.081 505.447 335.838C505.724 335.595 506.08 335.473 506.514 335.473H510.968L497.295 357.922Z" fill="white"/>
<path d="M531.943 358.937L526.083 343.755C525.91 343.303 525.727 342.783 525.536 342.192C525.345 341.585 525.163 340.942 524.99 340.265C524.625 341.671 524.252 342.843 523.87 343.781L518.01 358.937H531.943ZM542.464 372.792H538.558C538.106 372.792 537.742 372.679 537.464 372.453C537.186 372.228 536.978 371.941 536.839 371.594L533.349 362.583H516.604L513.114 371.594C513.01 371.906 512.81 372.184 512.515 372.427C512.22 372.67 511.855 372.792 511.421 372.792H507.515L522.437 335.473H527.542L542.464 372.792Z" fill="white"/>
<path d="M557.712 353.547C559.171 353.547 560.456 353.373 561.567 353.026C562.695 352.661 563.633 352.158 564.379 351.515C565.143 350.856 565.716 350.074 566.098 349.172C566.48 348.269 566.671 347.27 566.671 346.177C566.671 343.954 565.942 342.279 564.483 341.151C563.025 340.022 560.838 339.458 557.921 339.458H552.4V353.547H557.712ZM574.953 372.792H570.473C569.553 372.792 568.876 372.436 568.442 371.724L558.754 358.391C558.459 357.974 558.138 357.679 557.791 357.505C557.461 357.314 556.94 357.219 556.228 357.219H552.4V372.792H547.374V335.473H557.921C560.282 335.473 562.322 335.716 564.041 336.203C565.76 336.671 567.175 337.357 568.286 338.26C569.414 339.163 570.248 340.256 570.786 341.541C571.324 342.809 571.593 344.232 571.593 345.812C571.593 347.132 571.385 348.364 570.968 349.51C570.551 350.656 569.944 351.689 569.145 352.609C568.364 353.512 567.4 354.285 566.254 354.927C565.126 355.569 563.841 356.055 562.4 356.385C563.042 356.75 563.598 357.279 564.067 357.974L574.953 372.792Z" fill="white"/>
<path d="M585.081 372.792H580.028V335.473H585.081V372.792Z" fill="white"/>
<path d="M614.445 358.937L608.585 343.755C608.412 343.303 608.229 342.783 608.038 342.192C607.847 341.585 607.665 340.942 607.492 340.265C607.127 341.671 606.754 342.843 606.372 343.781L600.512 358.937H614.445ZM624.966 372.792H621.06C620.608 372.792 620.244 372.679 619.966 372.453C619.688 372.228 619.48 371.941 619.341 371.594L615.851 362.583H599.106L595.616 371.594C595.512 371.906 595.312 372.184 595.017 372.427C594.722 372.67 594.357 372.792 593.923 372.792H590.017L604.939 335.473H610.044L624.966 372.792Z" fill="white"/>
<path d="M660.111 335.473V372.792H655.059V355.812H634.928V372.792H629.876V335.473H634.928V352.114H655.059V335.473H660.111Z" fill="white"/>
<path d="M304.818 421.978H299.766V384.659H304.818V421.978Z" fill="white"/>
<path d="M344.599 384.659V421.978H342.073C341.674 421.978 341.335 421.908 341.058 421.769C340.797 421.63 340.537 421.396 340.276 421.066L318.687 392.94C318.722 393.374 318.748 393.8 318.765 394.216C318.782 394.633 318.791 395.024 318.791 395.388V421.978H314.364V384.659H316.968C317.194 384.659 317.385 384.676 317.541 384.711C317.697 384.728 317.836 384.772 317.958 384.841C318.079 384.893 318.201 384.98 318.322 385.102C318.444 385.206 318.574 385.345 318.713 385.518L340.302 413.618C340.268 413.167 340.233 412.732 340.198 412.316C340.181 411.882 340.172 411.474 340.172 411.092V384.659H344.599Z" fill="white"/>
<path d="M386.485 403.331C386.485 406.126 386.042 408.67 385.157 410.962C384.271 413.253 383.021 415.215 381.406 416.847C379.792 418.479 377.847 419.747 375.573 420.649C373.316 421.535 370.816 421.978 368.073 421.978H354.14V384.659H368.073C370.816 384.659 373.316 385.11 375.573 386.013C377.847 386.899 379.792 388.166 381.406 389.815C383.021 391.447 384.271 393.409 385.157 395.701C386.042 397.993 386.485 400.536 386.485 403.331ZM381.302 403.331C381.302 401.039 380.99 398.991 380.365 397.185C379.74 395.38 378.854 393.852 377.708 392.602C376.563 391.352 375.174 390.397 373.542 389.737C371.91 389.077 370.087 388.748 368.073 388.748H359.192V417.889H368.073C370.087 417.889 371.91 417.559 373.542 416.899C375.174 416.24 376.563 415.293 377.708 414.061C378.854 412.811 379.74 411.283 380.365 409.477C380.99 407.672 381.302 405.623 381.302 403.331Z" fill="white"/>
<path d="M428.244 403.331C428.244 406.126 427.801 408.696 426.915 411.04C426.03 413.366 424.78 415.371 423.165 417.056C421.551 418.74 419.606 420.05 417.332 420.988C415.075 421.908 412.575 422.368 409.831 422.368C407.088 422.368 404.588 421.908 402.331 420.988C400.074 420.05 398.138 418.74 396.524 417.056C394.909 415.371 393.659 413.366 392.774 411.04C391.888 408.696 391.445 406.126 391.445 403.331C391.445 400.536 391.888 397.975 392.774 395.649C393.659 393.305 394.909 391.291 396.524 389.607C398.138 387.906 400.074 386.586 402.331 385.649C404.588 384.711 407.088 384.242 409.831 384.242C412.575 384.242 415.075 384.711 417.332 385.649C419.606 386.586 421.551 387.906 423.165 389.607C424.78 391.291 426.03 393.305 426.915 395.649C427.801 397.975 428.244 400.536 428.244 403.331ZM423.061 403.331C423.061 401.039 422.749 398.982 422.124 397.159C421.499 395.336 420.613 393.8 419.467 392.55C418.321 391.282 416.932 390.31 415.3 389.633C413.668 388.956 411.845 388.617 409.831 388.617C407.835 388.617 406.021 388.956 404.389 389.633C402.757 390.31 401.359 391.282 400.196 392.55C399.05 393.8 398.164 395.336 397.539 397.159C396.914 398.982 396.602 401.039 396.602 403.331C396.602 405.623 396.914 407.68 397.539 409.503C398.164 411.309 399.05 412.845 400.196 414.113C401.359 415.363 402.757 416.326 404.389 417.003C406.021 417.663 407.835 417.993 409.831 417.993C411.845 417.993 413.668 417.663 415.3 417.003C416.932 416.326 418.321 415.363 419.467 414.113C420.613 412.845 421.499 411.309 422.124 409.503C422.749 407.68 423.061 405.623 423.061 403.331Z" fill="white"/>
<path d="M465.707 384.659V421.978H463.181C462.782 421.978 462.443 421.908 462.166 421.769C461.905 421.63 461.645 421.396 461.384 421.066L439.795 392.94C439.83 393.374 439.856 393.8 439.873 394.216C439.891 394.633 439.899 395.024 439.899 395.388V421.978H435.472V384.659H438.076C438.302 384.659 438.493 384.676 438.649 384.711C438.805 384.728 438.944 384.772 439.066 384.841C439.187 384.893 439.309 384.98 439.43 385.102C439.552 385.206 439.682 385.345 439.821 385.518L461.41 413.618C461.376 413.167 461.341 412.732 461.306 412.316C461.289 411.882 461.28 411.474 461.28 411.092V384.659H465.707Z" fill="white"/>
<path d="M498.27 417.863L498.243 421.978H475.248V384.659H498.243V388.774H480.3V401.17H494.832V405.128H480.3V417.863H498.27Z" fill="white"/>
<path d="M524.398 390.492C524.242 390.753 524.068 390.952 523.877 391.091C523.703 391.213 523.486 391.274 523.226 391.274C522.931 391.274 522.584 391.126 522.184 390.831C521.785 390.536 521.281 390.215 520.674 389.867C520.084 389.503 519.363 389.173 518.512 388.878C517.679 388.583 516.663 388.435 515.465 388.435C514.337 388.435 513.339 388.591 512.47 388.904C511.62 389.199 510.899 389.607 510.309 390.128C509.736 390.649 509.302 391.265 509.007 391.977C508.712 392.671 508.564 393.426 508.564 394.242C508.564 395.284 508.816 396.152 509.319 396.847C509.84 397.524 510.517 398.105 511.351 398.592C512.201 399.078 513.156 399.503 514.215 399.868C515.292 400.215 516.385 400.579 517.497 400.961C518.625 401.343 519.719 401.777 520.778 402.263C521.854 402.732 522.809 403.331 523.643 404.06C524.493 404.79 525.171 405.684 525.674 406.743C526.195 407.802 526.455 409.104 526.455 410.649C526.455 412.281 526.177 413.818 525.622 415.259C525.066 416.682 524.25 417.924 523.174 418.983C522.115 420.042 520.804 420.875 519.241 421.483C517.696 422.09 515.934 422.394 513.955 422.394C511.524 422.394 509.319 421.96 507.34 421.092C505.361 420.207 503.668 419.017 502.262 417.524L503.72 415.128C503.859 414.937 504.024 414.781 504.215 414.66C504.423 414.521 504.649 414.451 504.892 414.451C505.118 414.451 505.369 414.547 505.647 414.738C505.942 414.911 506.272 415.137 506.637 415.415C507.001 415.693 507.418 415.996 507.887 416.326C508.356 416.656 508.885 416.96 509.476 417.238C510.083 417.516 510.769 417.75 511.533 417.941C512.297 418.115 513.156 418.201 514.111 418.201C515.309 418.201 516.377 418.036 517.314 417.707C518.252 417.377 519.042 416.917 519.684 416.326C520.344 415.719 520.847 414.998 521.195 414.165C521.542 413.331 521.716 412.403 521.716 411.378C521.716 410.25 521.455 409.33 520.934 408.618C520.431 407.889 519.762 407.281 518.929 406.795C518.096 406.309 517.141 405.901 516.064 405.571C514.988 405.224 513.894 404.876 512.783 404.529C511.672 404.165 510.578 403.748 509.502 403.279C508.425 402.81 507.47 402.203 506.637 401.456C505.804 400.71 505.126 399.781 504.606 398.67C504.102 397.541 503.85 396.152 503.85 394.503C503.85 393.183 504.102 391.907 504.606 390.675C505.126 389.442 505.873 388.348 506.845 387.393C507.835 386.438 509.041 385.675 510.465 385.102C511.906 384.529 513.556 384.242 515.413 384.242C517.497 384.242 519.389 384.572 521.09 385.232C522.809 385.892 524.32 386.846 525.622 388.096L524.398 390.492Z" fill="white"/>
<path d="M538.642 421.978H533.589V384.659H538.642V421.978Z" fill="white"/>
<path d="M568.006 408.123L562.146 392.94C561.973 392.489 561.79 391.968 561.599 391.378C561.408 390.77 561.226 390.128 561.052 389.451C560.688 390.857 560.315 392.029 559.933 392.966L554.073 408.123H568.006ZM578.527 421.978H574.621C574.169 421.978 573.805 421.865 573.527 421.639C573.249 421.413 573.041 421.127 572.902 420.78L569.412 411.769H552.667L549.177 420.78C549.073 421.092 548.873 421.37 548.578 421.613C548.283 421.856 547.918 421.978 547.484 421.978H543.578L558.5 384.659H563.605L578.527 421.978Z" fill="white"/>
</svg>
